<?xml version="1.0" standalone="no"?>
<!DOCTYPE svg PUBLIC "-//W3C//DTD SVG 20010904//EN"
 "http://www.w3.org/TR/2001/REC-SVG-20010904/DTD/svg10.dtd">
<svg version="1.0" xmlns="http://www.w3.org/2000/svg"
 width="1024.000000pt" height="1024.000000pt" viewBox="0 0 1024.000000 1024.000000"
 preserveAspectRatio="xMidYMid meet">
<metadata>
Created by potrace 1.14, written by Peter Selinger 2001-2017
</metadata>
<g transform="translate(0.000000,1024.000000) scale(0.100000,-0.100000)"
fill="#000000" stroke="none">
<path d="M6771 8924 c-153 -21 -270 -46 -606 -129 -1093 -268 -1769 -421
-1920 -435 -288 -27 -519 -73 -1350 -271 -115 -28 -327 -77 -470 -110 -377
-87 -772 -185 -894 -220 -131 -38 -330 -124 -408 -177 -164 -111 -249 -264
-285 -511 -25 -170 -2 -2706 27 -2922 26 -203 79 -352 173 -492 134 -197 482
-412 1093 -675 252 -109 337 -153 381 -199 40 -42 95 -131 238 -383 159 -282
249 -407 352 -489 67 -54 188 -110 303 -142 119 -32 805 -176 903 -190 239
-31 479 16 1347 265 642 185 888 260 1432 442 722 240 884 315 1062 492 98 97
151 175 208 308 105 245 154 549 182 1129 32 641 36 873 36 1925 0 1059 -7
1375 -36 1740 -40 505 -140 758 -341 861 -80 40 -176 61 -608 130 -430 70
-619 82 -819 53z m598 -2338 c43 -23 87 -78 110 -141 32 -86 41 -206 43 -620
3 -424 1 -447 -68 -591 -47 -101 -106 -151 -215 -187 -103 -33 -145 -34 -190
-4 -46 31 -76 78 -99 156 -17 58 -20 119 -29 511 -8 365 -8 458 4 515 27 140
86 256 154 301 43 28 181 72 229 73 18 1 46 -6 61 -13z m-1564 -425 c49 -23
106 -81 136 -140 46 -89 50 -132 56 -581 6 -469 4 -489 -57 -610 -37 -74 -119
-163 -174 -189 -63 -31 -222 -63 -284 -58 -100 7 -185 103 -211 235 -11 59
-33 875 -24 928 20 132 62 231 123 298 59 64 93 82 206 110 120 30 176 32 229
7z m987 -1773 c54 -62 21 -220 -58 -273 -16 -11 -155 -56 -309 -99 -257 -73
-281 -78 -304 -65 -14 8 -31 26 -38 39 -19 37 -16 129 6 175 32 71 62 87 268
144 103 29 231 65 283 81 102 30 125 30 152 -2z"/>
</g>
</svg>
