<?xml version="1.0" standalone="no"?>
<!DOCTYPE svg PUBLIC "-//W3C//DTD SVG 20010904//EN"
 "http://www.w3.org/TR/2001/REC-SVG-20010904/DTD/svg10.dtd">
<svg version="1.0" xmlns="http://www.w3.org/2000/svg"
 width="1024.000000pt" height="1024.000000pt" viewBox="0 0 1024.000000 1024.000000"
 preserveAspectRatio="xMidYMid meet">
<metadata>
Created by potrace 1.14, written by Peter Selinger 2001-2017
</metadata>
<g transform="translate(0.000000,1024.000000) scale(0.100000,-0.100000)"
fill="#000000" stroke="none">
<path d="M6965 9738 c-95 -9 -146 -24 -243 -71 -123 -58 -251 -164 -330 -272
-20 -27 -39 -52 -42 -55 -4 -3 -27 -39 -52 -81 -110 -181 -185 -358 -378 -883
-90 -245 -126 -299 -235 -354 -42 -21 -172 -62 -197 -62 -13 0 -29 68 -44 185
-1 11 -5 35 -8 53 -7 38 -11 64 -26 152 -16 103 -19 119 -41 225 -11 55 -24
111 -28 125 -5 14 -14 45 -22 70 -7 25 -15 50 -18 55 -3 6 -6 15 -7 20 -4 22
-64 143 -96 192 -48 76 -142 169 -224 223 -69 45 -189 92 -269 105 -48 7 -180
7 -215 0 -14 -3 -34 -7 -46 -9 -158 -32 -314 -126 -461 -279 -175 -182 -313
-408 -467 -762 -31 -71 -61 -139 -66 -150 -5 -11 -34 -78 -64 -150 -30 -71
-84 -193 -120 -270 -72 -157 -55 -142 -191 -160 -152 -20 -206 -28 -370 -60
-99 -19 -191 -36 -205 -39 -89 -17 -138 -26 -160 -30 -14 -2 -59 -11 -100 -19
-41 -9 -115 -23 -165 -32 -49 -10 -148 -30 -219 -46 -70 -16 -139 -31 -153
-33 -59 -11 -235 -71 -311 -107 -202 -94 -359 -244 -440 -421 -32 -69 -67
-197 -88 -318 -25 -150 -25 -462 1 -775 2 -22 6 -101 10 -175 4 -74 9 -160 11
-190 1 -30 5 -318 8 -640 6 -632 8 -698 35 -835 15 -82 19 -97 46 -174 81
-240 254 -422 510 -538 519 -235 744 -337 815 -370 47 -23 120 -55 163 -73 42
-17 86 -39 96 -48 11 -10 40 -66 66 -127 109 -252 198 -391 352 -542 l114
-112 -83 -39 c-553 -260 -790 -393 -1018 -573 -94 -74 -317 -288 -396 -379
-56 -66 -190 -245 -264 -355 -41 -60 -78 -112 -81 -115 -5 -5 -61 -98 -98
-165 -27 -48 -61 -138 -75 -199 l-13 -56 3296 0 3297 0 -2 88 c-4 147 -19 425
-29 536 -3 33 -8 126 -10 206 -3 80 -7 163 -10 185 -29 266 -172 516 -450 790
-147 144 -345 291 -481 358 -24 11 -44 24 -44 27 0 4 53 26 118 50 64 23 131
48 147 55 17 7 102 41 190 75 88 35 183 73 210 86 28 12 88 38 135 59 361 157
602 367 719 626 64 142 117 360 136 564 3 33 8 78 10 100 9 82 16 290 20 600
2 176 6 417 9 535 3 118 8 368 11 555 3 187 8 516 12 730 11 652 8 908 -11
1000 -2 11 -7 40 -10 65 -3 25 -10 60 -15 78 -5 18 -10 33 -9 35 0 1 -6 22
-13 47 -7 25 -13 50 -15 56 -2 14 -50 118 -76 169 -12 22 -58 99 -102 170
-138 224 -183 332 -220 540 -6 29 -10 51 -21 105 -2 14 -7 41 -11 60 -3 19
-10 59 -15 88 -5 28 -13 76 -18 105 -5 28 -19 95 -31 147 -12 52 -23 102 -25
110 -2 8 -18 60 -35 115 -121 378 -332 591 -615 621 -22 3 -47 6 -55 7 -8 2
-46 -1 -85 -5z"/>
</g>
</svg>
