<?xml version="1.0" standalone="no"?>
<!DOCTYPE svg PUBLIC "-//W3C//DTD SVG 20010904//EN"
 "http://www.w3.org/TR/2001/REC-SVG-20010904/DTD/svg10.dtd">
<svg version="1.0" xmlns="http://www.w3.org/2000/svg"
 width="1024.000000pt" height="1024.000000pt" viewBox="0 0 1024.000000 1024.000000"
 preserveAspectRatio="xMidYMid meet">
<metadata>
Created by potrace 1.14, written by Peter Selinger 2001-2017
</metadata>
<g transform="translate(0.000000,1024.000000) scale(0.100000,-0.100000)"
fill="#000000" stroke="none">
<path d="M6810 8594 c-139 -20 -311 -54 -450 -89 -124 -31 -295 -72 -380 -91
-85 -20 -319 -76 -520 -124 -201 -49 -455 -110 -565 -137 l-200 -48 -410 -6
c-225 -4 -421 -9 -435 -12 -14 -4 -63 -11 -110 -17 -122 -17 -351 -63 -562
-114 -368 -89 -475 -114 -553 -131 -44 -10 -224 -52 -400 -95 -176 -42 -367
-87 -425 -100 -244 -52 -482 -133 -622 -212 -205 -115 -291 -299 -317 -676
-11 -169 14 -2751 29 -2912 25 -279 94 -441 228 -531 69 -47 238 -135 312
-163 36 -13 117 -47 180 -76 63 -28 185 -80 270 -115 85 -35 198 -83 250 -106
52 -23 138 -59 190 -79 164 -65 354 -152 388 -178 18 -14 53 -56 77 -93 42
-64 285 -524 285 -538 0 -3 -46 -24 -103 -46 -141 -54 -363 -165 -455 -227
-77 -52 -180 -127 -204 -151 -7 -7 -47 -41 -88 -76 -212 -178 -616 -660 -689
-821 -19 -41 -65 -137 -103 -213 -70 -141 -84 -190 -102 -359 l-6 -58 3126 0
c2972 0 3125 1 3120 18 -2 9 -7 44 -11 77 -7 62 -77 491 -144 885 -22 124 -42
255 -45 291 -4 37 -15 92 -25 122 -11 30 -24 80 -31 111 -18 86 -54 165 -98
215 -183 209 -213 236 -321 283 l-46 20 175 59 c96 33 189 65 205 73 17 7 127
46 245 86 118 39 247 87 285 105 39 19 96 45 127 59 32 13 101 53 154 87 77
50 114 83 189 170 90 104 95 112 149 251 117 299 132 480 145 1683 21 1920 23
2793 7 3030 -20 285 -51 450 -105 559 -22 45 -48 102 -59 128 -14 32 -30 52
-54 64 -18 9 -54 31 -79 49 -92 65 -114 73 -348 110 -147 24 -629 79 -776 88
-48 3 -140 -6 -295 -29z m736 -2248 c72 -79 85 -133 94 -406 15 -406 12 -691
-6 -773 -32 -140 -105 -270 -177 -311 -53 -31 -168 -66 -216 -66 -69 0 -134
61 -166 155 -24 72 -34 259 -35 671 0 328 2 368 20 438 48 190 116 273 261
319 57 18 100 25 134 23 44 -3 54 -8 91 -50z m-1622 -388 c83 -44 131 -118
151 -236 9 -54 14 -211 16 -527 l3 -450 -27 -82 c-31 -93 -96 -187 -163 -239
-51 -38 -185 -77 -269 -78 -72 -1 -115 21 -162 82 -70 93 -80 180 -85 737 l-3
410 29 83 c38 107 99 199 158 235 54 34 247 85 297 80 19 -2 43 -9 55 -15z
m917 -1877 c21 -17 24 -28 24 -83 0 -50 -6 -73 -29 -114 -32 -58 -68 -80 -166
-98 -32 -6 -103 -25 -259 -70 -68 -20 -132 -34 -141 -31 -28 9 -43 59 -37 125
6 68 35 123 75 144 28 14 136 46 330 96 62 16 120 34 130 39 26 16 47 13 73
-8z"/>
</g>
</svg>
